<svg width="167" height="40" viewBox="0 0 167 40" fill="none" xmlns="http://www.w3.org/2000/svg">
<path d="M77.4292 32.2491L75.0911 29.5267C74.1517 30.1353 73.1214 30.6157 72.0005 30.968C70.8795 31.3096 69.6998 31.4804 68.4614 31.4804C66.8173 31.4804 65.2853 31.1868 63.8654 30.5997C62.4455 30.0125 61.2018 29.1958 60.1342 28.1495C59.0773 27.0926 58.2499 25.8542 57.652 24.4343C57.0542 23.0037 56.7553 21.4557 56.7553 19.7903C56.7553 18.1248 57.0489 16.5822 57.636 15.1623C58.2339 13.7424 59.0666 12.504 60.1342 11.4471C61.2018 10.3901 62.4509 9.5681 63.8814 8.98093C65.3227 8.39375 66.8814 8.10016 68.5575 8.10016C70.2123 8.10016 71.7496 8.39909 73.1695 8.99694C74.6001 9.58412 75.8491 10.4062 76.9167 11.4631C77.995 12.52 78.8331 13.7531 79.4309 15.1623C80.0394 16.5715 80.3437 18.0982 80.3437 19.7422C80.3437 21.3116 80.0661 22.7849 79.511 24.1621C78.9665 25.5286 78.2139 26.7243 77.253 27.7492L79.543 30.3755L77.4292 32.2491ZM68.5575 28.3417C69.3795 28.3417 70.1642 28.2296 70.9115 28.0054C71.6588 27.7812 72.3474 27.4609 72.9773 27.0446L69.5824 23.1212L71.5841 21.3596L74.9951 25.251C75.5609 24.5571 76.0093 23.7511 76.3402 22.8329C76.6712 21.9041 76.8367 20.8899 76.8367 19.7903C76.8367 18.0821 76.4683 16.5982 75.7317 15.3384C74.9951 14.068 73.9969 13.0858 72.7371 12.3919C71.488 11.6873 70.0948 11.335 68.5575 11.335C67.4045 11.335 66.3262 11.5378 65.3227 11.9435C64.3298 12.3385 63.4597 12.9043 62.7124 13.641C61.9758 14.3776 61.3993 15.269 60.9829 16.3153C60.5666 17.3508 60.3584 18.5092 60.3584 19.7903C60.3584 21.4984 60.7214 22.9931 61.4473 24.2742C62.1733 25.5553 63.1555 26.5535 64.3939 27.2688C65.6323 27.9841 67.0202 28.3417 68.5575 28.3417ZM90.9821 31.4804C89.3274 31.4804 87.8487 31.1014 86.5463 30.3434C85.2545 29.5748 84.2403 28.5552 83.5036 27.2848C82.767 26.0037 82.3987 24.5998 82.3987 23.0731C82.3987 21.9415 82.6069 20.8739 83.0232 19.8704C83.4503 18.8561 84.0481 17.9594 84.8168 17.18C85.5961 16.4007 86.5089 15.7868 87.5551 15.3384C88.6014 14.89 89.7491 14.6659 90.9981 14.6659C92.6529 14.6659 94.1262 15.0502 95.418 15.8188C96.7204 16.5768 97.74 17.5964 98.4766 18.8775C99.2132 20.1479 99.5816 21.5465 99.5816 23.0731C99.5816 24.1941 99.368 25.2617 98.941 26.2759C98.5247 27.2901 97.9321 28.1869 97.1635 28.9662C96.3948 29.7456 95.4874 30.3594 94.4411 30.8078C93.3949 31.2562 92.2419 31.4804 90.9821 31.4804ZM90.9821 28.3577C91.9643 28.3577 92.8344 28.1442 93.5924 27.7172C94.361 27.2794 94.9642 26.6656 95.4019 25.8756C95.8397 25.0855 96.0585 24.1514 96.0585 23.0731C96.0585 21.9949 95.8397 21.0607 95.4019 20.2707C94.9642 19.47 94.361 18.8561 93.5924 18.4291C92.8344 18.0021 91.9643 17.7886 90.9821 17.7886C89.9999 17.7886 89.1245 18.0021 88.3558 18.4291C87.5979 18.8561 87 19.47 86.5623 20.2707C86.1353 21.0607 85.9217 21.9949 85.9217 23.0731C85.9217 24.1514 86.1406 25.0855 86.5783 25.8756C87.016 26.6656 87.6139 27.2794 88.3719 27.7172C89.1405 28.1442 90.0106 28.3577 90.9821 28.3577ZM102.579 31V15.1463H106.102V17.3402C106.7 16.3473 107.426 15.6534 108.28 15.2584C109.134 14.8527 110.053 14.6498 111.035 14.6498C111.355 14.6498 111.659 14.6659 111.947 14.6979C112.236 14.7299 112.513 14.7779 112.78 14.842L112.316 18.4772C111.996 18.3811 111.67 18.3063 111.339 18.253C111.008 18.1996 110.677 18.1729 110.346 18.1729C109.118 18.1729 108.104 18.5519 107.303 19.3099C106.503 20.0572 106.102 21.0767 106.102 22.3685V31H102.579ZM115.175 31V15.1463H118.698V17.164C119.36 16.2779 120.128 15.6427 121.004 15.2584C121.879 14.8634 122.787 14.6659 123.726 14.6659C125.178 14.6659 126.379 14.9541 127.329 15.5306C128.279 16.1071 128.984 16.8491 129.443 17.7565C129.913 18.664 130.148 19.5981 130.148 20.559V31H126.625V21.6479C126.625 20.5163 126.283 19.6088 125.6 18.9255C124.927 18.2423 123.988 17.9007 122.781 17.9007C121.991 17.9007 121.287 18.0768 120.667 18.4291C120.059 18.7814 119.579 19.2725 119.226 19.9024C118.874 20.5216 118.698 21.2476 118.698 22.0803V31H115.175ZM141.577 31.4804C139.868 31.4804 138.368 31.1334 137.077 30.4395C135.785 29.7349 134.776 28.7527 134.05 27.493C133.335 26.2332 132.977 24.7706 132.977 23.1052C132.977 21.8881 133.185 20.7671 133.602 19.7422C134.018 18.7067 134.605 17.8099 135.363 17.0519C136.121 16.2939 137.007 15.7068 138.021 15.2904C139.046 14.874 140.162 14.6659 141.368 14.6659C142.682 14.6659 143.851 14.9007 144.875 15.3705C145.9 15.8295 146.749 16.4754 147.422 17.3081C148.105 18.1409 148.585 19.1177 148.863 20.2387C149.151 21.349 149.199 22.5554 149.007 23.8578H136.356C136.335 24.808 136.543 25.6407 136.981 26.356C137.418 27.0606 138.043 27.6104 138.854 28.0054C139.676 28.4004 140.642 28.5979 141.753 28.5979C142.649 28.5979 143.514 28.4645 144.347 28.1976C145.19 27.92 145.954 27.5143 146.637 26.9805L147.998 29.5107C147.486 29.9271 146.866 30.2847 146.141 30.5836C145.415 30.8719 144.657 31.0907 143.867 31.2402C143.077 31.4003 142.313 31.4804 141.577 31.4804ZM136.564 21.2636H145.548C145.516 20.0679 145.132 19.1284 144.395 18.4451C143.669 17.7619 142.633 17.4202 141.288 17.4202C139.986 17.4202 138.902 17.7619 138.038 18.4451C137.183 19.1284 136.692 20.0679 136.564 21.2636ZM149.937 31.016L155.67 23.0411L150.273 15.1463H154.709L158.088 20.5109L161.355 15.1463H165.679L160.442 22.945L166.127 31H161.611L157.96 25.4272L154.261 30.968L149.937 31.016Z" fill="white"/>
<path d="M43.5256 17.0404L35.3734 2.92448C34.3282 1.11508 32.3973 0 30.307 0H14.0025C11.9122 0 9.98127 1.11508 8.93613 2.92448L0.783852 17.0404C-0.261284 18.8487 -0.261284 21.0778 0.783852 22.8872L1.82459 24.69L8.93613 37.0031C9.98127 38.8125 11.9122 39.9265 14.0025 39.9265H30.307C32.3973 39.9265 34.3282 38.8125 35.3734 37.0031L43.5256 22.8872C44.5708 21.0778 44.5708 18.8487 43.5256 17.0404ZM38.9451 21.3645L32.0335 33.3316C31.5544 34.1621 30.3554 34.1621 29.8751 33.3316L22.9636 21.3645C22.4625 20.4977 21.5371 19.9627 20.5359 19.9627H6.71398C5.75457 19.9627 5.15562 18.9245 5.63478 18.094L12.5452 6.1291C13.0463 5.2612 13.9717 4.72728 14.974 4.72728H29.3355C30.3378 4.72728 31.2631 5.2612 31.7643 6.1291L38.9451 18.562C39.4462 19.4299 39.4462 20.4977 38.9451 21.3645Z" fill="url(#paint0_angular_716_1309)"/>
<defs>
<radialGradient id="paint0_angular_716_1309" cx="0" cy="0" r="1" gradientUnits="userSpaceOnUse" gradientTransform="translate(21.8838 19.4493) rotate(59.6062) scale(25.1824 27.9468)">
<stop stop-color="#DAE855"/>
<stop offset="0.28125" stop-color="#BFD532"/>
<stop offset="0.484375" stop-color="#8EB939"/>
<stop offset="0.703125" stop-color="#413FAD"/>
<stop offset="1" stop-color="#6E58EC" stop-opacity="0"/>
</radialGradient>
</defs>
</svg>
