<svg width="80" height="80" viewBox="0 0 80 80" fill="none" xmlns="http://www.w3.org/2000/svg">
<g filter="url(#filter0_dd_655_7942)">
<path fill-rule="evenodd" clip-rule="evenodd" d="M43.7124 28.7877C45.7626 30.838 45.7626 34.1621 43.7124 36.2123C41.6621 38.2626 38.338 38.2626 36.2877 36.2123C34.2375 34.1621 34.2375 30.838 36.2877 28.7877C38.338 26.7374 41.6621 26.7374 43.7124 28.7877" fill="#EBFF29"/>
<path fill-rule="evenodd" clip-rule="evenodd" d="M28 49.7502V51.2502C28 52.0782 28.672 52.7502 29.5 52.7502H50.5C51.328 52.7502 52 52.0782 52 51.2502V49.7502C52 45.2112 46.072 42.2622 40 42.2622C33.928 42.2622 28 45.2112 28 49.7502Z" fill="#EBFF29"/>
</g>
<defs>
<filter id="filter0_dd_655_7942" x="-22" y="-22.75" width="124" height="125.5" filterUnits="userSpaceOnUse" color-interpolation-filters="sRGB">
<feFlood flood-opacity="0" result="BackgroundImageFix"/>
<feColorMatrix in="SourceAlpha" type="matrix" values="0 0 0 0 0 0 0 0 0 0 0 0 0 0 0 0 0 0 127 0" result="hardAlpha"/>
<feOffset/>
<feGaussianBlur stdDeviation="15"/>
<feComposite in2="hardAlpha" operator="out"/>
<feColorMatrix type="matrix" values="0 0 0 0 0.921569 0 0 0 0 1 0 0 0 0 0.160784 0 0 0 1 0"/>
<feBlend mode="normal" in2="BackgroundImageFix" result="effect1_dropShadow_655_7942"/>
<feColorMatrix in="SourceAlpha" type="matrix" values="0 0 0 0 0 0 0 0 0 0 0 0 0 0 0 0 0 0 127 0" result="hardAlpha"/>
<feOffset/>
<feGaussianBlur stdDeviation="25"/>
<feComposite in2="hardAlpha" operator="out"/>
<feColorMatrix type="matrix" values="0 0 0 0 0.921569 0 0 0 0 1 0 0 0 0 0.160784 0 0 0 1 0"/>
<feBlend mode="normal" in2="effect1_dropShadow_655_7942" result="effect2_dropShadow_655_7942"/>
<feBlend mode="normal" in="SourceGraphic" in2="effect2_dropShadow_655_7942" result="shape"/>
</filter>
</defs>
</svg>
